<svg width="128" height="128" viewBox="0 0 128 128" xmlns="http://www.w3.org/2000/svg">
  <defs>
    <!-- Plate gradient: rich liturgical purple to deep violet -->
    <linearGradient id="plate" x1="0" y1="0" x2="0" y2="1">
      <stop offset="0%"   stop-color="#9B57C5"/>
      <stop offset="100%" stop-color="#5C2D91"/>
    </linearGradient>
    <!-- Plate rim shadow -->
    <linearGradient id="rim" x1="0" y1="0" x2="0" y2="1">
      <stop offset="0%"   stop-color="#ffffff" stop-opacity="0.18"/>
      <stop offset="100%" stop-color="#ffffff" stop-opacity="0.0"/>
    </linearGradient>
    <!-- Flame outer -->
    <radialGradient id="flame-out" cx="50%" cy="80%" r="55%">
      <stop offset="0%"   stop-color="#FFE566"/>
      <stop offset="60%"  stop-color="#FFA830"/>
      <stop offset="100%" stop-color="#E05C00" stop-opacity="0.7"/>
    </radialGradient>
    <!-- Flame inner -->
    <radialGradient id="flame-in" cx="50%" cy="75%" r="50%">
      <stop offset="0%"   stop-color="#FFFBE0"/>
      <stop offset="100%" stop-color="#FFE04A" stop-opacity="0"/>
    </radialGradient>
    <!-- Book page left -->
    <linearGradient id="page-l" x1="0" y1="0" x2="1" y2="0">
      <stop offset="0%"   stop-color="#F4EEFF"/>
      <stop offset="100%" stop-color="#E8E0F8"/>
    </linearGradient>
    <!-- Book page right -->
    <linearGradient id="page-r" x1="0" y1="0" x2="1" y2="0">
      <stop offset="0%"   stop-color="#E8E0F8"/>
      <stop offset="100%" stop-color="#DDD4F2"/>
    </linearGradient>
  </defs>

  <!-- ── Outer shadow ring ── -->
  <rect x="6" y="7" width="116" height="116" rx="24" fill="#000000" opacity="0.22"/>

  <!-- ── Plate ── -->
  <rect x="8" y="8" width="112" height="112" rx="22" fill="url(#plate)"/>

  <!-- ── Plate highlight (top rim) ── -->
  <rect x="8" y="8" width="112" height="56" rx="22" fill="url(#rim)"/>

  <!-- ══ BOOK ══ -->

  <!-- Left page -->
  <path d="M 18 54
           C 18 50, 42 46, 61 46
           L 61 94
           C 42 94, 18 96, 18 91
           Z"
        fill="url(#page-l)"/>

  <!-- Right page -->
  <path d="M 110 54
           C 110 50, 86 46, 67 46
           L 67 94
           C 86 94, 110 96, 110 91
           Z"
        fill="url(#page-r)"/>

  <!-- Spine shadow strip left -->
  <rect x="59" y="46" width="3" height="48" rx="1"
        fill="#4A2080" opacity="0.20"/>

  <!-- Spine shadow strip right -->
  <rect x="66" y="46" width="3" height="48" rx="1"
        fill="#4A2080" opacity="0.10"/>

  <!-- Book bottom curve (closed pages beneath) -->
  <path d="M 18 91 C 18 95, 42 97, 64 97 C 86 97, 110 95, 110 91
           L 110 94 C 110 98, 86 100, 64 100 C 42 100, 18 98, 18 94 Z"
        fill="#C8B8E8" opacity="0.55"/>

  <!-- ── Left page text lines ── -->
  <line x1="26" y1="56" x2="57" y2="56" stroke="#A088CC" stroke-width="2.2" stroke-linecap="round" opacity="0.75"/>
  <line x1="26" y1="63" x2="55" y2="63" stroke="#A088CC" stroke-width="2.2" stroke-linecap="round" opacity="0.75"/>
  <line x1="26" y1="70" x2="57" y2="70" stroke="#A088CC" stroke-width="2.2" stroke-linecap="round" opacity="0.75"/>
  <line x1="26" y1="77" x2="53" y2="77" stroke="#A088CC" stroke-width="2.2" stroke-linecap="round" opacity="0.75"/>
  <line x1="26" y1="84" x2="56" y2="84" stroke="#A088CC" stroke-width="2.2" stroke-linecap="round" opacity="0.75"/>

  <!-- ── Right page text lines ── -->
  <line x1="71" y1="56" x2="102" y2="56" stroke="#A088CC" stroke-width="2.2" stroke-linecap="round" opacity="0.75"/>
  <line x1="71" y1="63" x2="100" y2="63" stroke="#A088CC" stroke-width="2.2" stroke-linecap="round" opacity="0.75"/>
  <line x1="71" y1="70" x2="102" y2="70" stroke="#A088CC" stroke-width="2.2" stroke-linecap="round" opacity="0.75"/>
  <line x1="71" y1="77" x2="98" y2="77" stroke="#A088CC" stroke-width="2.2" stroke-linecap="round" opacity="0.75"/>
  <line x1="71" y1="84" x2="101" y2="84" stroke="#A088CC" stroke-width="2.2" stroke-linecap="round" opacity="0.75"/>

  <!-- ══ CANDLE ══ -->

  <!-- Candle wax body -->
  <rect x="59.5" y="32" width="9" height="16" rx="2.5"
        fill="#F8F2E2" stroke="#E0D4B8" stroke-width="0.8"/>

  <!-- Wax drip detail -->
  <path d="M 59.5 36 Q 57 37 57.5 39 Q 58 40 59.5 40 Z"
        fill="#F0E8D0" opacity="0.7"/>

  <!-- Wick -->
  <path d="M 64 32 Q 64.5 29 64 27"
        stroke="#3D2010" stroke-width="1.4" stroke-linecap="round" fill="none"/>

  <!-- ══ FLAME ══ -->

  <!-- Outer flame glow (wide base) -->
  <path d="M 64 13
           C 59 18, 54 22, 55 28
           C 56 33, 60 34, 64 34
           C 68 34, 72 33, 73 28
           C 74 22, 69 18, 64 13 Z"
        fill="url(#flame-out)"/>

  <!-- Inner flame highlight -->
  <path d="M 64 17
           C 61.5 21, 59 24, 59.5 28
           C 60 31, 62.5 32, 64 32
           C 65.5 32, 68 31, 68.5 28
           C 69 24, 66.5 21, 64 17 Z"
        fill="url(#flame-in)"/>

  <!-- Flame tip glow dot -->
  <ellipse cx="64" cy="19" rx="2.5" ry="3.5" fill="white" opacity="0.55"/>

</svg>
